<?xml version="1.0" encoding="UTF-8"?>
<svg version="1.1" xmlns="http://www.w3.org/2000/svg" width="100" height="100">
<path d="M0 0 C11.61044611 7.87971198 19.15935154 19.2066008 22.3125 32.875 C23.89717002 49.02312243 21.49670209 62.85642305 11.3125 75.875 C2.63554281 85.40912627 -9.20905927 92.57459012 -22.32421875 93.2109375 C-38.27522126 93.49821567 -51.00429952 90.68762883 -63.1640625 79.62109375 C-73.96142781 68.37233356 -78.11642811 55.7894671 -78.05102539 40.50610352 C-77.76224063 26.46859694 -72.13689804 14.79262043 -62 5.0625 C-44.23015437 -10.05270406 -19.90521865 -11.59766872 0 0 Z " fill="#C30101" transform="translate(77.6875,7.125)"/>
<path d="M0 0 C6.1241816 5.06500238 11.70715861 10.5782921 17.30859375 16.2109375 C18.28485986 17.18907267 19.26134994 18.16698435 20.23805237 19.14468384 C22.78672577 21.69714399 25.33237958 24.25259448 27.87738037 26.80871582 C30.48346618 29.42509914 33.09244621 32.03859303 35.70117188 34.65234375 C40.80359118 39.76543246 45.90281857 44.88168912 51 50 C49.87478738 53.37563785 49.58444307 53.65002019 46.5625 55.1875 C38.21561522 58.67095111 26.58774434 58.37848606 17.9375 55.9375 C12.99664644 53.87396704 8.94434526 50.56407757 5 47 C4.43152344 46.48695312 3.86304688 45.97390625 3.27734375 45.4453125 C-3.19473468 38.79115514 -6.24685146 29.51792313 -6.5625 20.375 C-6.26337954 12.90605275 -4.14462449 6.21693674 0 0 Z " fill="#227FDC" transform="translate(19,30)"/>
<path d="M0 0 C7.43252585 5.2150872 14.13687571 12.31126808 16.62890625 21.2578125 C17.14236381 25.05199362 17.30318888 28.79942573 17.375 32.625 C17.43107422 33.7696875 17.43107422 33.7696875 17.48828125 34.9375 C17.5234375 37.1640625 17.5234375 37.1640625 17 41 C14.57815382 43.04318619 13.18411836 44 10 44 C9.34 45.32 8.68 46.64 8 48 C4.46760977 46.49315032 2.2037834 44.44633388 -0.49316406 41.73388672 C-1.37377502 40.85312469 -2.25438599 39.97236267 -3.16168213 39.06491089 C-4.11310431 38.10327649 -5.06441603 37.1415328 -6.015625 36.1796875 C-6.99596129 35.19561893 -7.97674168 34.21199258 -8.95794678 33.22879028 C-11.53354467 30.64557286 -14.10307857 28.05640488 -16.67138672 25.46594238 C-19.29551067 22.8213238 -21.92533771 20.1823899 -24.5546875 17.54296875 C-29.7087167 12.36751928 -34.85635157 7.18576878 -40 2 C-29.60663042 -8.90650721 -12.04694163 -6.54326271 0 0 Z " fill="#2280DD" transform="translate(70,18)"/>
<path d="M0 0 C3.63879675 1.53652003 5.98214646 3.72420759 8.765625 6.5 C9.65507813 7.386875 10.54453125 8.27375 11.4609375 9.1875 C12.38132813 10.115625 13.30171875 11.04375 14.25 12 C15.18585937 12.928125 16.12171875 13.85625 17.0859375 14.8125 C17.97023437 15.699375 18.85453125 16.58625 19.765625 17.5 C20.57805664 18.3146875 21.39048828 19.129375 22.22753906 19.96875 C24 22 24 22 24 24 C19.41019186 24.07447267 14.82073986 24.12875322 10.23046875 24.16479492 C8.67083606 24.17982869 7.11124528 24.20026135 5.55175781 24.22631836 C3.30262884 24.26294211 1.05406153 24.27978021 -1.1953125 24.29296875 C-1.8861795 24.30845261 -2.57704651 24.32393646 -3.28884888 24.33988953 C-9.35384374 24.34197105 -13.19026662 22.59929926 -17.6875 18.625 C-22.06098182 13.66050712 -23 11.8970224 -23 5 C-18.05 5 -13.1 5 -8 5 C-8 6.65 -8 8.3 -8 10 C-4.04 10 -0.08 10 4 10 C4 8.35 4 6.7 4 5 C1.69 5 -0.62 5 -3 5 C-2.01 3.35 -1.02 1.7 0 0 Z " fill="#F4F8FB" transform="translate(42,54)"/>
<path d="M0 0 C1.65 0.33 3.3 0.66 5 1 C5 2.98 5 4.96 5 7 C5.66 7.185625 6.32 7.37125 7 7.5625 C12.37655523 10.13876605 16.60378869 13.99294625 20 18.875 C21.66620629 24.08189466 21.69770124 28.86328996 20 34.0625 C19.67 34.701875 19.34 35.34125 19 36 C13.4542023 35.10274929 10.32477906 30.87753854 6.5 27.0625 C5.36111328 25.9787207 5.36111328 25.9787207 4.19921875 24.87304688 C-0.38115501 20.32877063 -3.17814656 16.30272806 -5.25292969 10.17407227 C-6.15709524 7.54283232 -7.46014923 5.30977615 -9 3 C-6.36 3.33 -3.72 3.66 -1 4 C-0.67 2.68 -0.34 1.36 0 0 Z " fill="#F7F9FB" transform="translate(47,17)"/>
<path d="M0 0 C7.48219749 4.90123041 14.51841966 11.45192715 18.4296875 19.59375 C18.75324219 20.25632812 19.07679687 20.91890625 19.41015625 21.6015625 C22.86382787 29.35205562 22.47114542 40.16961562 20.16015625 48.25390625 C18.9697232 51.07732526 17.70707381 53.77912268 16.2421875 56.46875 C15.7471875 57.45875 15.7471875 57.45875 15.2421875 58.46875 C11.43073067 56.89063036 9.00790312 54.48810853 6.10644531 51.59179688 C5.60842911 51.09728531 5.1104129 50.60277374 4.5973053 50.09327698 C2.95825188 48.46300197 1.32659384 46.82554915 -0.3046875 45.1875 C-1.44211065 44.05142419 -2.57983054 42.9156454 -3.71783447 41.78015137 C-6.09819701 39.40273445 -8.47491132 37.02174452 -10.84912109 34.63818359 C-13.89798956 31.577895 -16.9557829 28.52670651 -20.01633835 25.47811127 C-22.36530881 23.13635239 -24.70951392 20.78987004 -27.05228424 18.44190979 C-28.17838836 17.31446857 -29.30598811 16.18851922 -30.43508148 15.06407166 C-32.00815062 13.49605903 -33.57470336 11.92181824 -35.13964844 10.34570312 C-36.03359314 9.45016724 -36.92753784 8.55463135 -37.84857178 7.63195801 C-39.7578125 5.46875 -39.7578125 5.46875 -39.7578125 3.46875 C-38.17706686 2.65122697 -36.59310027 1.83993003 -35.0078125 1.03125 C-34.12609375 0.57878906 -33.244375 0.12632813 -32.3359375 -0.33984375 C-23.33923257 -4.49741194 -8.93120485 -4.32653522 0 0 Z M-37.7578125 5.46875 C-22.5778125 20.64875 -7.3978125 35.82875 8.2421875 51.46875 C9.5621875 50.80875 10.8821875 50.14875 12.2421875 49.46875 C12.2421875 48.80875 12.2421875 48.14875 12.2421875 47.46875 C13.0259375 47.159375 13.8096875 46.85 14.6171875 46.53125 C17.16548878 45.53999962 17.16548878 45.53999962 19.2421875 44.46875 C19.68724473 30.11153328 19.27511821 20.57213985 9.2421875 9.46875 C8.47261719 8.61603516 8.47261719 8.61603516 7.6875 7.74609375 C1.03334264 1.27401532 -8.23988937 -1.77810146 -17.3828125 -2.09375 C-25.07424311 -1.77638514 -32.23617164 -0.05289086 -37.7578125 5.46875 Z " fill="#0C0407" transform="translate(67.7578125,14.53125)"/>
<path d="M0 0 C6.37789488 5.1023159 9.30794569 13.1510277 11 21 C12.36846277 37.2327997 10.26395627 50.87947241 0 64 C-8.67695719 73.53412627 -20.52155927 80.69959012 -33.63671875 81.3359375 C-47.79440333 81.5894747 -58.46169389 79.74114099 -70 71 C-68.22265625 70.359375 -68.22265625 70.359375 -66 70 C-64.24609375 70.890625 -64.24609375 70.890625 -62.4375 72.25 C-52.04491265 79.08322135 -38.57061042 79.73967666 -26.59375 77.30859375 C-13.90006276 73.39906894 -4.02378912 66.38001799 2.859375 54.8984375 C9.12348618 42.87730986 10.07222035 28.85301649 6.25 15.8125 C4.68165312 11.32030645 2.75521983 7.83762762 0 4 C0 2.68 0 1.36 0 0 Z " fill="#332323" transform="translate(89,19)"/>
<path d="M0 0 C3.8239492 1.57877433 6.23642099 3.99501713 9.13574219 6.90869141 C9.63375839 7.40641556 10.1317746 7.90413971 10.6448822 8.41694641 C12.28366733 10.0571207 13.91526134 11.70425661 15.546875 13.3515625 C16.68415347 14.49257256 17.8218754 15.63314077 18.96002197 16.77328491 C21.94989979 19.77078762 24.93372191 22.77424851 27.9163208 25.7789917 C30.96271321 28.84586712 34.01479703 31.90706694 37.06640625 34.96875 C43.04985434 40.97362783 49.02691663 46.98481232 55 53 C48.96098668 59.17558576 42.94560983 61.15599239 34.37353516 61.4777832 C22.02686446 61.59335068 14.3289281 59.06040042 5.26171875 50.36328125 C-2.53463429 42.21683291 -6.58747579 34.59672351 -6.4375 23.1875 C-6.43049072 22.01272095 -6.43049072 22.01272095 -6.42333984 20.81420898 C-6.22594894 13.02850203 -4.33687023 6.50530535 0 0 Z M1 2 C-4.90521159 11.64517893 -6.85967859 21.19115543 -4.1953125 32.37890625 C-0.35714593 43.58899964 6.4548199 51.0662605 16.640625 56.94140625 C24.72617534 60.56919457 37.06396206 60.62078858 45.40234375 57.8828125 C47.71907087 56.70616773 49.87635757 55.4940198 52 54 C50.45071235 50.30600749 48.20284832 47.95517369 45.38256836 45.13964844 C44.91571121 44.67089294 44.44885406 44.20213745 43.96784973 43.71917725 C42.43001796 42.17765324 40.88512739 40.64342601 39.33984375 39.109375 C38.26856136 38.03928499 37.19764867 36.96882476 36.12709045 35.89801025 C33.88655427 33.65903604 31.64270389 31.42345626 29.39624023 29.19042969 C26.51022987 26.32146008 23.63089776 23.44589995 20.7537756 20.56801987 C18.54512293 18.35963838 16.33387955 16.15386696 14.12173653 13.94898224 C13.05854642 12.88898327 11.9959688 11.82836962 10.93400383 10.76714325 C9.45451718 9.28981256 7.97179288 7.81581472 6.48803711 6.34277344 C5.64357529 5.50212341 4.79911346 4.66147339 3.92906189 3.79534912 C2.31720524 1.88645308 2.31720524 1.88645308 1 2 Z " fill="#0C0306" transform="translate(18,28)"/>
<path d="M0 0 C1.32076538 0.00132935 1.32076538 0.00132935 2.66821289 0.00268555 C11.9608881 0.17071281 19.43106298 2.45438905 27.3125 7.375 C23.58881602 9.23684199 18.60690458 6.78334203 14.76171875 5.5703125 C1.96991541 1.68278905 -9.51486159 2.75705101 -21.51953125 8.80078125 C-23.98814587 10.23309588 -26.34279772 11.74911156 -28.6875 13.375 C-29.739375 14.096875 -30.79125 14.81875 -31.875 15.5625 C-35.32391924 19.01141924 -37.66758409 22.78104087 -40.171875 26.94921875 C-42.06182025 29.97410534 -43.69935293 31.38290196 -46.6875 33.375 C-45.30843631 23.90883443 -38.50190263 16.39186229 -31.4375 10.3828125 C-21.83991801 3.37548701 -11.80446228 -0.02131782 0 0 Z " fill="#70747D" transform="translate(49.6875,-0.375)"/>
<path d="M0 0 C3.48237462 0.4474143 5.32532028 1.84136279 7.8125 4.25 C8.43769531 4.83265625 9.06289063 5.4153125 9.70703125 6.015625 C11 8 11 8 10 13 C4.39 13 -1.22 13 -7 13 C-1.125 1.125 -1.125 1.125 0 0 Z " fill="#ECF2F8" transform="translate(27,40)"/>
<path d="M0 0 C5.30737524 7.96106286 4.85876619 16.73204411 4 26 C3.21498018 29.65776803 2.40918832 33.07998092 0 36 C-2.64453125 36.74609375 -2.64453125 36.74609375 -5 37 C-5.99 35.68 -6.98 34.36 -8 33 C-4.82418312 29.55197024 -2.39309313 27.58003686 2 26 C1.31530883 12.97390046 1.31530883 12.97390046 0 0 Z " fill="#12101C" transform="translate(85,33)"/>
<path d="M0 0 C1.899623 2.8494345 3.16230883 5.57197493 4.5625 8.6875 C8.82741004 17.29013562 15.41619385 22.87317012 24 27 C27.29977137 27.79480603 30.47714177 28.16348382 33.86328125 28.31640625 C34.74951172 28.35830078 35.63574219 28.40019531 36.54882812 28.44335938 C37.9168457 28.50233398 37.9168457 28.50233398 39.3125 28.5625 C40.24384766 28.60568359 41.17519531 28.64886719 42.13476562 28.69335938 C44.42304454 28.79897225 46.71142372 28.90107752 49 29 C42.83276537 33.11148975 32.10463294 31.78108596 24.94140625 30.41796875 C15.33675058 27.0524974 7.19247357 18.58755245 2 10 C0.40908736 6.23966103 0 4.11620664 0 0 Z " fill="#100C15" transform="translate(13,58)"/>
<path d="M0 0 C-0.1875 2.375 -0.1875 2.375 -1 5 C-2.64551962 5.71727778 -4.31422289 6.38325228 -6 7 C-7.34410262 9.01735205 -7.34410262 9.01735205 -8 11 C-11.36179774 9.55922954 -13.59156268 7.75249979 -16 5 C-16 4.34 -16 3.68 -16 3 C-5.62642369 -0.44419134 -5.62642369 -0.44419134 0 0 Z " fill="#F1F4F8" transform="translate(86,55)"/>
<path d="M0 0 C0.33 0 0.66 0 1 0 C1.33 5.28 1.66 10.56 2 16 C2.33 16 2.66 16 3 16 C3.65177969 18.18573562 4.29614674 20.3736823 4.9375 22.5625 C5.29714844 23.78066406 5.65679688 24.99882813 6.02734375 26.25390625 C6.96676959 29.87201619 7.54743991 33.29853486 8 37 C5.2916555 34.63987122 4.14980073 32.40006885 2.875 29.0625 C2.54242188 28.20785156 2.20984375 27.35320312 1.8671875 26.47265625 C0.51279978 22.61082098 -0.1239647 19.33849329 -0.09765625 15.234375 C-0.09443359 14.34492187 -0.09121094 13.45546875 -0.08789062 12.5390625 C-0.07532227 11.15847656 -0.07532227 11.15847656 -0.0625 9.75 C-0.05798828 8.81414063 -0.05347656 7.87828125 -0.04882812 6.9140625 C-0.03706918 4.60930959 -0.02063426 2.30468773 0 0 Z " fill="#7E828B" transform="translate(0,40)"/>
<path d="M0 0 C6.29946199 5.03956959 9.47585137 13.18259252 11 21 C11.03888349 23.33300933 11.0448635 25.66709801 11 28 C10.34 28 9.68 28 9 28 C8.76925781 27.02160156 8.53851563 26.04320313 8.30078125 25.03515625 C6.59413938 18.08529189 4.92278827 11.89413751 0.953125 5.83203125 C0 4 0 4 0 0 Z " fill="#433333" transform="translate(89,19)"/>
<path d="M0 0 C3.63465934 0.57591433 6.30663823 1.57053188 9.5 3.375 C15.40232943 6.45098739 21.50138533 7.74713228 28 9 C28 9.66 28 10.32 28 11 C17.74693158 11.93209713 7.82261794 7.42007785 0 1 C0 0.67 0 0.34 0 0 Z " fill="#423434" transform="translate(19,89)"/>
<path d="M0 0 C0.66 0.33 1.32 0.66 2 1 C1.071875 1.845625 0.14375 2.69125 -0.8125 3.5625 C-3.97074093 6.71332722 -5.42645973 9.80389261 -7 14 C-7.98537521 16.0072458 -8.98063057 18.00980253 -10 20 C-10.66 20 -11.32 20 -12 20 C-12.66 20.66 -13.32 21.32 -14 22 C-12.77340187 13.19079526 -6.42517113 5.79832517 0 0 Z " fill="#8692A1" transform="translate(17,11)"/>
<path d="M0 0 C-0.71285156 0.36351562 -1.42570312 0.72703125 -2.16015625 1.1015625 C-9.47902638 4.94323053 -15.21325543 9.16158807 -21 15 C-20.0964289 9.41313079 -16.04179225 5.6927601 -12 2 C-7.96895729 -0.38957307 -4.55948203 -1.43240365 0 0 Z " fill="#262530" transform="translate(33,6)"/>
<path d="M0 0 C0.75 1.5625 0.75 1.5625 1 4 C-0.13084437 6.50286409 -1.52139516 8.67007722 -3 11 C-4.32 10.34 -5.64 9.68 -7 9 C-7 6 -7 6 -4.625 3.375 C-2 1 -2 1 0 0 Z " fill="#257FD9" transform="translate(85,59)"/>
<path d="M0 0 C-0.33 0.99 -0.66 1.98 -1 3 C-4.42264319 4.42610133 -8.09879533 4.09901205 -11.75 4.0625 C-12.92046875 4.05347656 -14.0909375 4.04445313 -15.296875 4.03515625 C-16.18890625 4.02355469 -17.0809375 4.01195313 -18 4 C-18 3.34 -18 2.68 -18 2 C-15.37518273 1.66517137 -12.75016613 1.3320723 -10.125 1 C-9.37863281 0.90460938 -8.63226563 0.80921875 -7.86328125 0.7109375 C-2.2265625 0 -2.2265625 0 0 0 Z " fill="#341E1E" transform="translate(65,96)"/>
<path d="M0 0 C3.23861303 1.44424635 5.61969163 3.25772247 8.25 5.625 C8.95640625 6.25664062 9.6628125 6.88828125 10.390625 7.5390625 C10.92171875 8.02117188 11.4528125 8.50328125 12 9 C11.67 9.66 11.34 10.32 11 11 C6.8981116 8.70776825 3.43252858 6.19304984 0 3 C0 2.01 0 1.02 0 0 Z " fill="#6D6464" transform="translate(77,8)"/>
<path d="M0 0 C4.15238119 4.04015467 7.55256065 7.72859216 10 13 C6.64170896 11.56285993 4.60029302 9.79022601 2.1875 7.0625 C1.56230469 6.37285156 0.93710938 5.68320313 0.29296875 4.97265625 C-0.13371094 4.32167969 -0.56039063 3.67070313 -1 3 C-0.67 2.01 -0.34 1.02 0 0 Z " fill="#6E6667" transform="translate(9,76)"/>
<path d="M0 0 C0.66 0 1.32 0 2 0 C1.67 5.61 1.34 11.22 1 17 C0.34 17.33 -0.32 17.66 -1 18 C-1.02684312 15.18743719 -1.04676188 12.37512759 -1.0625 9.5625 C-1.07087891 8.76005859 -1.07925781 7.95761719 -1.08789062 7.13085938 C-1.0965143 5.08704779 -1.0522815 3.04316098 -1 1 C-0.67 0.67 -0.34 0.34 0 0 Z " fill="#25090E" transform="translate(2,39)"/>
<path d="M0 0 C4.77923358 0.57930104 8.02129144 2.39853671 12 5 C12.33 5.99 12.66 6.98 13 8 C7.73691968 6.58795406 4.2437012 4.31008693 0 1 C0 0.67 0 0.34 0 0 Z " fill="#615757" transform="translate(19,89)"/>
<path d="M0 0 C3.65882521 3.3621637 6.14420341 6.36050852 8 11 C7.67 11.66 7.34 12.32 7 13 C4.04415849 10.24800963 1.81234853 7.62469707 0 4 C0 2.68 0 1.36 0 0 Z " fill="#615757" transform="translate(89,19)"/>
<path d="M0 0 C0.66 0 1.32 0 2 0 C2.0810206 2.10353495 2.13919907 4.20795952 2.1875 6.3125 C2.22230469 7.48425781 2.25710937 8.65601563 2.29296875 9.86328125 C2 13 2 13 -1 16 C-0.67 10.72 -0.34 5.44 0 0 Z " fill="#291616" transform="translate(98,47)"/>
<path d="M0 0 C3.16115776 1.36983503 3.9927092 1.9890638 6 5 C5.625 7.6875 5.625 7.6875 5 10 C4.67 10 4.34 10 4 10 C4 8.35 4 6.7 4 5 C1.69 5 -0.62 5 -3 5 C-2.01 3.35 -1.02 1.7 0 0 Z " fill="#CFDEED" transform="translate(42,54)"/>
<path d="M0 0 C0.33 0.66 0.66 1.32 1 2 C0.26821134 4.07196631 -0.55899003 6.1108552 -1.4375 8.125 C-1.91058594 9.22070312 -2.38367188 10.31640625 -2.87109375 11.4453125 C-3.24363281 12.28835937 -3.61617188 13.13140625 -4 14 C-4.66 13.67 -5.32 13.34 -6 13 C-3.10933941 3.40546697 -3.10933941 3.40546697 0 0 Z " fill="#423334" transform="translate(98,62)"/>
<path d="M0 0 C-2.93828597 2.50298434 -5.17902761 3.46930939 -9 4 C-8 1 -8 1 -5.625 -0.25 C-3 -1 -3 -1 0 0 Z " fill="#402F2F" transform="translate(74,94)"/>
<path d="M0 0 C0.66 0 1.32 0 2 0 C0.87548273 2.9719385 -0.22293791 5.33440687 -2 8 C-2.99 7.67 -3.98 7.34 -5 7 C-4.21654285 5.82780457 -3.42297164 4.66236332 -2.625 3.5 C-2.18414062 2.8503125 -1.74328125 2.200625 -1.2890625 1.53125 C-0.65097656 0.77328125 -0.65097656 0.77328125 0 0 Z " fill="#2D2121" transform="translate(91,75)"/>
<path d="M0 0 C-0.33 0.99 -0.66 1.98 -1 3 C-3.97 3 -6.94 3 -10 3 C-6.48579734 1.24289867 -3.89581553 0 0 0 Z " fill="#281414" transform="translate(65,96)"/>
<path d="M0 0 C0.99 0.33 1.98 0.66 3 1 C1.37660195 2.70884005 -0.29319053 4.37446717 -2 6 C-2.66 6 -3.32 6 -4 6 C-2.84826645 3.53199953 -1.95216435 1.95216435 0 0 Z " fill="#3E3636" transform="translate(85,83)"/>
</svg>
